<svg xmlns="http://www.w3.org/2000/svg" viewBox="0 0 800 200" style="background-color: #f7f7f7;">
  <style>
    @keyframes run {
      0% { transform: translateX(0); }
      100% { transform: translateX(-200px); }
    }
    @keyframes jump {
      0%, 100% { transform: translateY(0); }
      50% { transform: translateY(-50px); }
    }
    .ground { animation: run 2s linear infinite; }
    .cactus { animation: run 2s linear infinite; }
    .dino { animation: jump 0.5s ease-in-out infinite; }
  </style>

  <!-- Ground -->
  <line x1="0" y1="150" x2="800" y2="150" stroke="#000" stroke-width="2" />
  
  <!-- Cactus -->
  <g class="cactus">
    <rect x="700" y="110" width="10" height="40" fill="#0a0" />
    <rect x="695" y="120" width="5" height="15" fill="#0a0" />
    <rect x="710" y="130" width="5" height="15" fill="#0a0" />
  </g>

  <!-- Dinosaur -->
  <g class="dino">
    <rect x="50" y="110" width="40" height="40" fill="#333" />
    <rect x="50" y="90" width="30" height="20" fill="#333" />
    <rect x="60" y="100" width="5" height="5" fill="#fff" /> <!-- Eye -->
    <rect x="50" y="150" width="10" height="20" fill="#333" /> <!-- Left leg -->
    <rect x="80" y="150" width="10" height="20" fill="#333" /> <!-- Right leg -->
  </g>

  <!-- Clouds -->
  <g fill="#ccc">
    <circle cx="100" cy="50" r="20" />
    <circle cx="120" cy="50" r="15" />
    <circle cx="140" cy="50" r="20" />
  </g>
  <g fill="#ccc">
    <circle cx="400" cy="80" r="20" />
    <circle cx="420" cy="80" r="15" />
    <circle cx="440" cy="80" r="20" />
  </g>

  <!-- Ground details -->
  <g class="ground">
    <line x1="0" y1="155" x2="10" y2="155" stroke="#000" stroke-width="2" />
    <line x1="50" y1="155" x2="60" y2="155" stroke="#000" stroke-width="2" />
    <line x1="100" y1="155" x2="110" y2="155" stroke="#000" stroke-width="2" />
    <line x1="150" y1="155" x2="160" y2="155" stroke="#000" stroke-width="2" />
    <line x1="200" y1="155" x2="210" y2="155" stroke="#000" stroke-width="2" />
  </g>
</svg>
